<svg width="133" height="32" viewBox="0 0 133 32" fill="none" xmlns="http://www.w3.org/2000/svg">
<path d="M12.8496 0.368388C13.7004 -0.122796 14.7486 -0.122796 15.5994 0.368388L26.8645 6.87227L19.075 11.4333C17.8693 10.2228 16.2006 9.47368 14.357 9.47368C12.4398 9.47368 10.7117 10.284 9.49669 11.5808L1.51953 6.90983L12.8496 0.368388Z" fill="#050038"/>
<path d="M7.97867 14.2151L0 9.54321V22.6027L7.94895 17.9483C7.78575 17.371 7.69842 16.762 7.69842 16.1326C7.69842 15.466 7.79636 14.8223 7.97867 14.2151Z" fill="#050038"/>
<path d="M9.42584 20.6069L1.64551 25.1627L12.8502 31.6317C13.701 32.1228 14.7492 32.1228 15.6 31.6317L26.7397 25.2001L19.1499 20.756C17.9389 22.0109 16.2394 22.7916 14.3576 22.7916C12.4025 22.7916 10.6441 21.9488 9.42584 20.6069Z" fill="#050038"/>
<path d="M20.707 18.1448L28.4492 22.6783C28.4495 22.6607 28.4497 22.6431 28.4497 22.6255V9.46777L20.6743 14.0206C20.8962 14.6843 21.0164 15.3945 21.0164 16.1328C21.0164 16.8341 20.908 17.51 20.707 18.1448Z" fill="#050038"/>
<path d="M41.8286 28V7.14001H50.3966C51.8339 7.14001 53.1033 7.39201 54.2046 7.89601C55.3246 8.40001 56.2019 9.14668 56.8366 10.136C57.4713 11.1253 57.7886 12.348 57.7886 13.804C57.7886 15.2227 57.4619 16.436 56.8086 17.444C56.1553 18.4333 55.2779 19.18 54.1766 19.684L58.9366 28H54.0646L49.8366 20.44H46.1686V28H41.8286ZM46.1686 16.66H50.4246C51.3393 16.66 52.0673 16.3987 52.6086 15.876C53.1686 15.3533 53.4486 14.6627 53.4486 13.804C53.4486 12.9267 53.1686 12.2267 52.6086 11.704C52.0673 11.1813 51.3393 10.92 50.4246 10.92H46.1686V16.66Z" fill="#050038"/>
<path d="M67.253 28.336C65.741 28.336 64.3597 27.9907 63.1091 27.3C61.8771 26.6093 60.8971 25.6667 60.1691 24.472C59.4411 23.2587 59.077 21.8867 59.077 20.356C59.077 18.8067 59.4411 17.4347 60.1691 16.24C60.8971 15.0453 61.8771 14.1027 63.1091 13.412C64.3597 12.7213 65.741 12.376 67.253 12.376C68.765 12.376 70.1371 12.7213 71.3691 13.412C72.6197 14.1027 73.6091 15.0453 74.3371 16.24C75.0651 17.4347 75.4291 18.8067 75.4291 20.356C75.4291 21.8867 75.0651 23.2587 74.3371 24.472C73.6091 25.6667 72.6197 26.6093 71.3691 27.3C70.1371 27.9907 68.765 28.336 67.253 28.336ZM67.253 24.556C68.4104 24.556 69.3344 24.164 70.0251 23.38C70.7344 22.596 71.0891 21.588 71.0891 20.356C71.0891 19.1427 70.7344 18.144 70.0251 17.36C69.3344 16.5573 68.4104 16.156 67.253 16.156C66.1144 16.156 65.1904 16.5573 64.4811 17.36C63.7717 18.144 63.417 19.1427 63.417 20.356C63.417 21.588 63.7717 22.596 64.4811 23.38C65.1904 24.164 66.1144 24.556 67.253 24.556Z" fill="#050038"/>
<path d="M82.7097 28.336C81.5524 28.336 80.5257 28.0747 79.6297 27.552C78.7524 27.0107 78.0617 26.264 77.5577 25.312C77.0724 24.36 76.8297 23.2587 76.8297 22.008V12.712H81.0297V21.644C81.0297 22.5213 81.291 23.2307 81.8137 23.772C82.3364 24.2947 83.0084 24.556 83.8297 24.556C84.651 24.556 85.323 24.2947 85.8457 23.772C86.3684 23.2307 86.6297 22.5213 86.6297 21.644V12.712H90.8297V28H86.9097V26.152C86.5177 26.8613 85.9577 27.4027 85.2297 27.776C84.5017 28.1493 83.6617 28.336 82.7097 28.336Z" fill="#050038"/>
<path d="M93.3453 28V12.712H97.2653V14.588C97.6573 13.8413 98.2267 13.2907 98.9733 12.936C99.72 12.5627 100.579 12.376 101.549 12.376C102.707 12.376 103.715 12.6187 104.573 13.104C105.451 13.5893 106.132 14.2707 106.617 15.148C107.103 16.0067 107.345 17.0147 107.345 18.172V28H103.145V19.068C103.145 18.1907 102.884 17.4907 102.361 16.968C101.839 16.4267 101.167 16.156 100.345 16.156C99.524 16.156 98.852 16.4267 98.3293 16.968C97.8067 17.4907 97.5453 18.1907 97.5453 19.068V28H93.3453Z" fill="#050038"/>
<path d="M116.525 28.336C115.05 28.336 113.725 27.9813 112.549 27.272C111.373 26.5627 110.44 25.6013 109.749 24.388C109.077 23.1747 108.741 21.8307 108.741 20.356C108.741 18.8627 109.086 17.5187 109.777 16.324C110.468 15.1107 111.401 14.1493 112.577 13.44C113.753 12.7307 115.06 12.376 116.497 12.376C118.345 12.376 119.81 12.9173 120.893 14V7.14001H125.093V28H121.173V26.544C120.632 27.1227 119.95 27.5707 119.129 27.888C118.326 28.1867 117.458 28.336 116.525 28.336ZM117.029 24.556C118.168 24.556 119.092 24.1733 119.801 23.408C120.529 22.624 120.893 21.6067 120.893 20.356C120.893 19.124 120.529 18.116 119.801 17.332C119.092 16.548 118.168 16.156 117.029 16.156C115.89 16.156 114.948 16.5573 114.201 17.36C113.454 18.144 113.081 19.1427 113.081 20.356C113.081 21.588 113.454 22.596 114.201 23.38C114.948 24.164 115.89 24.556 117.029 24.556Z" fill="#050038"/>
<path d="M128.041 28V23.8H132.241V28H128.041Z" fill="#050038"/>
</svg>
