<svg width="48" height="49" viewBox="0 0 48 49" fill="none" xmlns="http://www.w3.org/2000/svg">
<circle cx="24" cy="24.4775" r="24" fill="#A259FF"/>
<path d="M33.75 26.1294V21.6201C33.7514 21.3601 33.6834 21.1044 33.5531 20.8794H33.5437C33.4108 20.6467 33.2162 20.4553 32.9812 20.3263L24.7312 15.6857C24.5077 15.5609 24.256 15.4954 24 15.4954C23.744 15.4954 23.4923 15.5609 23.2687 15.6857L15.0188 20.3263C14.7858 20.4579 14.5918 20.6487 14.4563 20.8794C14.4563 20.8819 14.4553 20.8843 14.4535 20.8861C14.4517 20.8878 14.4494 20.8888 14.4469 20.8888V20.9076C14.3189 21.1232 14.2509 21.3692 14.25 21.6201V26.1294V30.8638C14.2505 31.131 14.3219 31.3934 14.457 31.624C14.592 31.8546 14.7859 32.0452 15.0188 32.1763L19.1437 34.4919L23.2687 36.8169C23.4764 36.9302 23.7074 36.9944 23.9437 37.0044H24.0656C24.299 36.9943 24.5269 36.9301 24.7312 36.8169L28.8562 34.4919L32.9812 32.1763C33.2141 32.0452 33.408 31.8546 33.543 31.624C33.6781 31.3934 33.7495 31.131 33.75 30.8638V26.1294ZM19.8656 28.0232L15.75 25.6982V22.4544L23.3344 26.6826L23.2594 35.0919L20.25 33.3951V28.6701C20.2496 28.5377 20.2137 28.4079 20.1461 28.2942C20.0785 28.1804 19.9816 28.0868 19.8656 28.0232ZM19.4062 19.5576L23.6344 21.9294C23.7445 21.9965 23.871 22.032 24 22.032C24.129 22.032 24.2555 21.9965 24.3656 21.9294L28.5937 19.5576L31.4719 21.1794L24.0844 25.3794L16.5375 21.1794L19.4062 19.5576ZM24.8344 26.6826L32.25 22.4638V25.6982L28.1344 28.0232C28.0184 28.0868 27.9215 28.1804 27.8539 28.2942C27.7863 28.4079 27.7504 28.5377 27.75 28.6701V33.3951L24.7594 35.0826L24.8344 26.6826Z" fill="white"/>
</svg>
