<svg width="100" height="99" viewBox="0 0 100 99" fill="none" xmlns="http://www.w3.org/2000/svg">
<ellipse cx="50.0434" cy="49.7454" rx="47.2094" ry="47.2062" fill="#EA4C89"/>
<path fill-rule="evenodd" clip-rule="evenodd" d="M50.0437 0.572266C22.8953 0.572266 0.867188 22.5989 0.867188 49.7454C0.867188 76.8919 22.8953 98.9185 50.0437 98.9185C77.1387 98.9185 99.2201 76.8919 99.2201 49.7454C99.2201 22.5989 77.1387 0.572266 50.0437 0.572266ZM82.5261 23.2388C88.3932 30.3854 91.9134 39.5055 92.0201 49.3721C90.6333 49.1054 76.7658 46.2788 62.7916 48.0387C62.4716 47.3455 62.2048 46.5987 61.8849 45.8521C61.0315 43.8254 60.0714 41.7454 59.1113 39.7721C74.579 33.4788 81.6194 24.4122 82.5261 23.2388ZM50.0439 7.82562C60.7113 7.82562 70.4719 11.8256 77.8857 18.3856C77.139 19.4522 70.7919 27.9323 55.8577 33.5322C48.9772 20.8922 41.35 10.5456 40.1767 8.94562C43.3235 8.19896 46.6304 7.82562 50.0439 7.82562ZM32.1756 11.7723C33.2957 13.2656 40.7628 23.6656 47.7499 36.0388C28.122 41.2654 10.7876 41.1588 8.92079 41.1588C11.6409 28.1455 20.4415 17.3189 32.1756 11.7723ZM8.01419 49.7988C8.01419 49.3721 8.01419 48.9455 8.01419 48.5188C9.82764 48.5721 30.2023 48.8388 51.1636 42.5455C52.3903 44.8922 53.5104 47.2921 54.5771 49.6922C54.0438 49.8522 53.4571 50.0122 52.9237 50.1721C31.269 57.1588 19.7483 76.252 18.7883 77.852C12.1211 70.4387 8.01419 60.5721 8.01419 49.7988ZM50.0436 91.7719C40.3364 91.7719 31.3757 88.4652 24.2819 82.9186C25.0287 81.372 33.5626 64.9453 57.244 56.6787C57.3508 56.6254 57.4041 56.6254 57.5108 56.572C63.4311 71.8786 65.8313 84.7319 66.4713 88.4119C61.4044 90.5986 55.8574 91.7719 50.0436 91.7719ZM73.4584 84.572C73.0317 82.0119 70.7916 69.7453 65.2979 54.6521C78.4721 52.5721 89.9927 55.9854 91.4328 56.4654C89.6194 68.1453 82.8989 78.2253 73.4584 84.572Z" fill="#C32361"/>
</svg>
