<svg width="69" height="70" viewBox="0 0 69 70" fill="none" xmlns="http://www.w3.org/2000/svg">
<rect y="0.339233" width="68.8471" height="68.8424" rx="34.4212" fill="#0057FF"/>
<path fill-rule="evenodd" clip-rule="evenodd" d="M11.4756 49.6602V20.4458C11.4756 20.1698 11.5667 20.0164 11.749 19.9857C12.2653 19.9555 13.0553 19.9325 14.119 19.9167C15.1822 19.9016 16.3368 19.8862 17.5827 19.8707C18.8283 19.8556 19.9677 19.8479 21.001 19.8477C23.4921 19.8477 25.4746 20.1237 26.9487 20.6758C28.4221 21.2279 29.554 21.9257 30.3441 22.7691C31.0741 23.5124 31.6206 24.4186 31.9394 25.4146C32.1968 26.2335 32.3349 27.0859 32.3495 27.9449C32.3656 28.8629 32.211 29.7758 31.8938 30.6363C31.6329 31.342 31.2638 32.0018 30.7999 32.5916C30.454 33.0397 30.0385 33.4281 29.5694 33.7418C30.2178 34.0887 30.8223 34.5135 31.3696 35.007C32.0786 35.6486 32.6588 36.4217 33.0788 37.2843C33.5979 38.3897 33.8478 39.6042 33.8079 40.8268C33.8364 42.5766 33.3005 44.2882 32.2811 45.7036C31.2628 47.1147 29.8044 48.2112 27.9059 48.9931C26.0065 49.7752 23.7353 50.1663 21.0921 50.1663H18.0613C17.1042 50.1663 16.2231 50.1586 15.4179 50.1432C14.6124 50.1274 13.9136 50.1121 13.3214 50.0973C12.7289 50.0814 12.2199 50.0738 11.7946 50.0743C11.5816 50.044 11.4753 49.906 11.4756 49.6602ZM17.6285 25.3225V31.7174H20.7276C21.5481 31.7174 22.3533 31.7328 23.1432 31.7634C23.71 31.7677 24.275 31.8293 24.8296 31.9474C25.232 31.6005 25.5646 31.1788 25.8094 30.7053C26.0855 30.133 26.2186 29.5012 26.1969 28.865C26.2285 28.1424 26.0199 27.4299 25.6043 26.8407C25.1627 26.287 24.5677 25.8786 23.8953 25.6675C22.9733 25.3812 22.0111 25.2491 21.0468 25.2764H19.725C19.3298 25.2764 18.9728 25.2841 18.654 25.2995C18.335 25.3153 17.9931 25.323 17.6285 25.3225ZM17.6285 44.7375V37.1463L21.5481 37.1463C22.104 37.1417 22.6596 37.1725 23.2117 37.2384C23.6334 37.2909 24.0519 37.3676 24.4649 37.4684C25.5282 37.7447 26.2574 38.1894 26.6526 38.8026C27.0565 39.4488 27.2627 40.201 27.2452 40.9649C27.2699 41.7511 27.0107 42.5196 26.5159 43.1272C25.9385 43.7659 25.1843 44.2148 24.351 44.4154C23.2739 44.707 22.1619 44.8463 21.0468 44.8295C20.3173 44.83 19.6944 44.8223 19.1781 44.8065C18.6613 44.7914 18.1448 44.7684 17.6285 44.7375Z" fill="white"/>
<path fill-rule="evenodd" clip-rule="evenodd" d="M44.0182 42.7362C43.5582 42.0046 43.2626 41.1801 43.1522 40.3208C43.1522 40.3208 56.5475 40.3115 56.7298 40.3115C56.9363 40.3041 57.1085 40.1496 57.1399 39.9434C57.1475 39.8813 57.1588 39.798 57.1723 39.6993C57.2119 39.4087 57.2697 38.9846 57.3037 38.5726C57.3493 38.0207 57.372 37.4073 57.372 36.7323C57.3686 35.5454 57.1842 34.366 56.8252 33.2358C56.4564 32.0629 55.8856 30.9649 55.1389 29.9922C54.3479 28.9708 53.3236 28.1578 52.1537 27.6229C50.7691 27.0087 49.2674 26.7102 47.7555 26.7488C46.1214 26.7084 44.4998 27.0468 43.0155 27.7379C41.6957 28.3837 40.5297 29.3096 39.5973 30.4523C38.6519 31.6087 37.9328 32.9357 37.478 34.3629C37.0058 35.8261 36.7673 37.3558 36.7715 38.8946C36.7711 40.3039 36.9707 41.706 37.3641 43.0582C37.7614 44.4282 38.4279 45.7034 39.3238 46.8078C40.2832 47.9798 41.5006 48.9093 42.8788 49.5222C44.3368 50.197 46.1447 50.5344 48.3025 50.5344C49.6475 50.5556 50.9911 50.44 52.3132 50.1893C53.337 49.9829 54.3319 49.6507 55.2756 49.2001C55.3584 49.1475 55.4285 49.0767 55.4807 48.9931C55.533 48.8861 55.5565 48.7671 55.549 48.6481V44.2774C55.549 44.0014 55.4729 43.9252 55.3212 44.0474C54.4656 44.417 53.5711 44.6872 52.655 44.8525C51.6845 45.0251 50.7007 45.1098 49.7153 45.1056C48.2261 45.106 47.0184 44.8913 46.092 44.4614C45.2488 44.1029 44.528 43.5032 44.0182 42.7362ZM49.1238 35.8581H43.1532C43.2495 35.1983 43.4577 34.5602 43.7686 33.9718C44.4863 32.5621 45.9614 31.7138 47.5286 31.8095C49.2036 31.7451 50.7148 32.8186 51.2203 34.4319C51.332 34.7737 51.3934 35.1302 51.4026 35.49V35.7661C51.1852 35.8121 50.9638 35.8352 50.7417 35.8351C50.3922 35.8504 49.8529 35.8581 49.1238 35.8581Z" fill="white"/>
<path d="M40.2822 18.984H53.9094C54.122 18.984 54.2289 19.1072 54.2289 19.3526V23.0849C54.2433 23.1864 54.2095 23.2889 54.1377 23.3614C54.0658 23.4339 53.9643 23.4681 53.8638 23.4535H40.2365C40.0233 23.4535 39.917 23.3311 39.917 23.0849V19.3066C39.917 19.0921 40.0383 18.984 40.2822 18.984Z" fill="white"/>
</svg>
