<svg width="40" height="40" viewBox="0 0 40 40" fill="none" xmlns="http://www.w3.org/2000/svg">
<path d="M35.9219 11.0624C35.9177 11.0624 35.9138 11.0608 35.9108 11.0579C35.9079 11.0549 35.9063 11.051 35.9063 11.0468C35.6804 10.6623 35.357 10.3443 34.9688 10.1249L21.2188 2.39056C20.8462 2.18256 20.4267 2.07336 20 2.07336C19.5733 2.07336 19.1538 2.18256 18.7813 2.39056L5.03126 10.1249C4.64301 10.3443 4.3196 10.6623 4.09376 11.0468C4.09376 11.051 4.09211 11.0549 4.08918 11.0579C4.08625 11.0608 4.08228 11.0624 4.07814 11.0624V11.0937C3.86212 11.4577 3.74873 11.8735 3.75001 12.2968V27.7031C3.7508 28.1485 3.86983 28.5857 4.09494 28.97C4.32005 29.3543 4.64316 29.672 5.03126 29.8906L18.7813 37.6249C19.1274 37.8138 19.5123 37.9207 19.9063 37.9374H20.125C20.5087 37.9181 20.8828 37.8112 21.2188 37.6249L34.9688 29.8906C35.3569 29.672 35.68 29.3543 35.9051 28.97C36.1302 28.5857 36.2492 28.1485 36.25 27.7031V12.2968C36.2523 11.8635 36.139 11.4374 35.9219 11.0624ZM20.1406 18.5624L7.56251 11.5624L20 4.56243L32.4531 11.5624L20.1406 18.5624ZM33.75 27.7031L21.2656 34.7343L21.3906 20.7343L33.75 13.7031V27.7031Z" fill="white"/>
</svg>
