<svg width="74" height="81" viewBox="0 0 74 81" fill="none" xmlns="http://www.w3.org/2000/svg">
<path d="M35.4789 20.2817L5.52106 2.65944C3.52116 1.48303 1 2.925 1 5.24524V57.1077C1 58.1708 1.56263 59.1545 2.47894 59.6935L35.4789 79.1053C36.4178 79.6575 37.5822 79.6575 38.5211 79.1053L71.5211 59.6935C72.4374 59.1545 73 58.1708 73 57.1077V5.24525C73 2.925 70.4788 1.48303 68.4789 2.65945L38.5211 20.2817C37.5822 20.834 36.4178 20.834 35.4789 20.2817Z" fill="white" stroke="#050038"/>
<path d="M50.8376 38.1875C50.5516 37.9488 50.2042 37.7952 49.8351 37.7444C49.466 37.6935 49.0901 37.7475 48.7501 37.9L42.4251 40.7125L38.7501 34.0875C38.5745 33.7782 38.32 33.521 38.0126 33.3421C37.7052 33.1631 37.3558 33.0688 37.0001 33.0688C36.6444 33.0688 36.2951 33.1631 35.9877 33.3421C35.6803 33.521 35.4258 33.7782 35.2501 34.0875L31.5751 40.7125L25.2501 37.9C24.9095 37.7477 24.5331 37.6937 24.1634 37.7441C23.7937 37.7945 23.4454 37.9474 23.158 38.1853C22.8706 38.4233 22.6555 38.7369 22.5371 39.0908C22.4186 39.4446 22.4015 39.8245 22.4876 40.1875L25.6626 53.725C25.7233 53.9871 25.8366 54.2342 25.9956 54.4512C26.1546 54.6682 26.356 54.8507 26.5876 54.9875C26.9012 55.1752 27.2597 55.2746 27.6251 55.275C27.8028 55.2747 27.9795 55.2495 28.1501 55.2C33.9374 53.6 40.0504 53.6 45.8376 55.2C46.3661 55.339 46.928 55.2625 47.4001 54.9875C47.6332 54.8524 47.8357 54.6705 47.9949 54.4532C48.1541 54.2359 48.2665 53.988 48.3251 53.725L51.5126 40.1875C51.5978 39.8244 51.5797 39.4447 51.4605 39.0912C51.3412 38.7378 51.1255 38.4248 50.8376 38.1875V38.1875ZM42.0001 49.3125C41.9726 49.559 41.8556 49.7868 41.6712 49.9526C41.4869 50.1185 41.2481 50.211 41.0001 50.2125H40.9001C38.3068 49.95 35.6935 49.95 33.1001 50.2125C32.8366 50.2406 32.5727 50.1628 32.3665 49.9964C32.1602 49.83 32.0285 49.5885 32.0001 49.325C31.9756 49.0602 32.0563 48.7964 32.2247 48.5906C32.3931 48.3848 32.6357 48.2535 32.9001 48.225C35.6259 47.9375 38.3744 47.9375 41.1001 48.225C41.3622 48.2535 41.6028 48.383 41.7709 48.5861C41.939 48.7892 42.0212 49.0498 42.0001 49.3125V49.3125Z" fill="#050038"/>
</svg>
