<svg width="117" height="32" viewBox="0 0 117 32" fill="none" xmlns="http://www.w3.org/2000/svg">
<path d="M15.1393 0.743164L0 18.9105H13.6254L12.1115 31.0217L27.2508 12.8546H13.6254L15.1393 0.743164Z" fill="white"/>
<path d="M48.6849 13.4065V19.0108H40.6014V26.6865H34.25V3.93042H50.3831V9.53455H40.6014V13.4065H48.6849Z" fill="white"/>
<path d="M59.2405 3.93042V26.6865H53.3984V3.93042H59.2405Z" fill="white"/>
<path d="M68.8793 8.85535C69.785 8.85535 70.668 9.05912 71.5284 9.46669C72.4117 9.85162 73.136 10.3498 73.7022 10.9611V9.3648H79.5443V26.6866H73.7022V23.7998C73.2722 24.7508 72.6155 25.5546 71.7324 26.2113C70.8494 26.868 69.7849 27.1962 68.5398 27.1962C67.249 27.1962 66.0374 26.868 64.9054 26.2113C63.7734 25.5546 62.8448 24.5471 62.1205 23.1884C61.4185 21.8071 61.0674 20.075 61.0674 17.9918C61.0674 16.0445 61.4185 14.3915 62.1205 13.033C62.8448 11.6744 63.796 10.6441 64.9733 9.94219C66.1735 9.21762 67.4753 8.85535 68.8793 8.85535ZM70.1021 14.5614C69.2644 14.5614 68.5624 14.901 67.9962 15.5803C67.4527 16.2596 67.1811 17.0634 67.1811 17.9918C67.1811 18.9203 67.464 19.7015 68.0302 20.3352C68.5963 20.9693 69.3436 21.2865 70.2719 21.2865C70.7699 21.2865 71.2794 21.1617 71.8003 20.9127C72.3209 20.6411 72.7626 20.2447 73.1247 19.7241C73.5098 19.1806 73.7022 18.4899 73.7022 17.6522V15.9879C73.2042 15.5803 72.6381 15.2407 72.004 14.969C71.3926 14.6972 70.7585 14.5614 70.1021 14.5614Z" fill="white"/>
<path d="M88.6065 8.85535C89.7388 8.85535 90.7803 9.02517 91.7312 9.3648C92.7048 9.68181 93.486 10.1234 94.0748 10.6894V15.2746C93.486 14.9123 92.818 14.5727 92.0711 14.2557C91.3238 13.9161 90.52 13.7462 89.6593 13.7462C89.1161 13.7462 88.6291 13.8595 88.1991 14.0859C87.7913 14.2897 87.5876 14.618 87.5876 15.0708C87.5876 15.3878 87.7121 15.6256 87.9611 15.7841C88.2104 15.9426 88.697 16.1124 89.4216 16.2936L90.4744 16.5653C93.486 17.3352 94.9918 18.9542 94.9918 21.4223C94.9918 22.5543 94.6523 23.5619 93.9729 24.4452C93.3162 25.3056 92.4445 25.9846 91.3578 26.4829C90.2934 26.9585 89.1387 27.1962 87.8932 27.1962C86.6027 27.1962 85.4025 27.0151 84.2931 26.6527C83.1834 26.2679 82.2325 25.8036 81.44 25.2603V20.709C82.2551 21.207 83.1721 21.626 84.1913 21.9655C85.2327 22.3053 86.1611 22.4751 86.9762 22.4751C87.6329 22.4751 88.1085 22.3959 88.4028 22.2374C88.7197 22.079 88.8781 21.7958 88.8781 21.3883C88.8781 21.0712 88.697 20.8335 88.3349 20.6751C87.9724 20.494 87.4518 20.29 86.7725 20.0636L85.0404 19.5201C83.7722 19.1353 82.8439 18.5352 82.2551 17.7201C81.6663 16.8823 81.3721 15.8634 81.3721 14.6633C81.3721 13.4632 81.689 12.4329 82.323 11.5725C82.9571 10.7121 83.8175 10.0441 84.9043 9.5686C86.0139 9.0931 87.2478 8.85535 88.6065 8.85535Z" fill="white"/>
<path d="M107.043 8.8553C108.809 8.8553 110.246 9.45533 111.356 10.6554C112.488 11.8555 113.054 13.633 113.054 15.9879V26.6866H107.212L107.178 16.9049C107.178 16.0444 106.94 15.4444 106.465 15.1048C105.989 14.7425 105.457 14.5613 104.869 14.5613C104.235 14.5613 103.702 14.7312 103.272 15.0708C102.842 15.3878 102.469 15.7727 102.151 16.2256V26.6866H96.3096V3.93042H102.151V11.6064C102.695 10.8592 103.352 10.2139 104.121 9.67044C104.914 9.12701 105.888 8.8553 107.043 8.8553Z" fill="white"/>
<path d="M112.76 4.06299V4.78563H111.89V6.98427H111.064V4.78563H110.194V4.06299H112.76Z" fill="white"/>
<path d="M116.15 4.01917V6.99739H115.324V5.55209L114.719 6.23094H114.472L113.867 5.55209V6.99739H113.041V4.01917H113.333L114.596 5.28929L115.858 4.01917H116.15Z" fill="white"/>
</svg>
