<svg width="82" height="82" viewBox="0 0 82 82" fill="none" xmlns="http://www.w3.org/2000/svg">
<rect x="1" y="0.516846" width="80.0054" height="80" rx="40" fill="white" stroke="#E3E3E3" stroke-width="0.984468"/>
<path d="M66.0046 41.117C66.0046 39.3614 65.8507 37.6947 65.5867 36.0725H40.7305V46.0947H54.9623C54.3244 49.3836 52.4547 52.1614 49.6831 54.0503V60.7169H58.1738C63.1451 56.0725 66.0046 49.2281 66.0046 41.117Z" fill="#4285F4"/>
<path d="M40.7293 67.1836C47.8562 67.1836 53.8173 64.7836 58.1727 60.7169L49.682 54.0503C47.3063 55.6503 44.2928 56.6281 40.7293 56.6281C33.8444 56.6281 28.0153 51.9392 25.9256 45.6058H17.1709V52.4725C21.5042 61.1836 30.4129 67.1836 40.7293 67.1836Z" fill="#34A853"/>
<path d="M25.9262 45.6058C25.3763 44.0058 25.0904 42.2947 25.0904 40.517C25.0904 38.7392 25.3983 37.0281 25.9262 35.4281V28.5614H17.1716C15.3678 32.1614 14.334 36.2058 14.334 40.517C14.334 44.8281 15.3678 48.8725 17.1716 52.4725L25.9262 45.6058Z" fill="#FBBC05"/>
<path d="M40.7293 24.4058C44.6227 24.4058 48.0982 25.7613 50.8478 28.4058L58.3706 20.8058C53.8173 16.4947 47.8562 13.8502 40.7293 13.8502C30.4129 13.8502 21.5042 19.8502 17.1709 28.5613L25.9256 35.428C28.0153 29.0947 33.8444 24.4058 40.7293 24.4058Z" fill="#EA4335"/>
</svg>
