<svg width="70" height="70" viewBox="0 0 70 70" fill="none" xmlns="http://www.w3.org/2000/svg">
<mask id="mask0_619_461" style="mask-type:alpha" maskUnits="userSpaceOnUse" x="1" y="2" width="68" height="68">
<path fill-rule="evenodd" clip-rule="evenodd" d="M35.0138 69.1782C53.3827 69.1782 68.2737 54.2917 68.2737 35.9282C68.2737 17.5648 53.3827 2.67822 35.0138 2.67822C16.6449 2.67822 1.75391 17.5648 1.75391 35.9282C1.75391 54.2917 16.6449 69.1782 35.0138 69.1782Z" fill="white"/>
</mask>
<g mask="url(#mask0_619_461)">
<path d="M0.603516 69.1792H69.4249V0.384155H0.603516V69.1792Z" fill="white"/>
</g>
<mask id="mask1_619_461" style="mask-type:alpha" maskUnits="userSpaceOnUse" x="0" y="0" width="70" height="70">
<path fill-rule="evenodd" clip-rule="evenodd" d="M16.9526 64.0636C7.14348 58.0038 0.607422 47.1559 0.607422 34.7818C0.607422 15.7851 16.0119 0.385254 35.0142 0.385254C54.0165 0.385254 69.421 15.7851 69.421 34.7818C69.421 53.7785 54.0165 69.1783 35.0142 69.1783C34.1023 69.1783 33.1986 69.1429 32.3046 69.0732L35.6892 59.777C36.2492 58.2388 38.1185 56.1783 39.767 54.3595C40.7108 53.321 41.5243 52.4228 41.8348 51.8949C43.3333 49.3438 47.9039 41.6802 47.95 41.6026C48.8892 40.2561 50.3965 37.9538 51.3256 36.4511L56.4009 28.208C57.3292 26.7012 57.3995 24.8101 56.5574 23.9939C56.4094 23.8513 56.236 23.743 56.0427 23.6726C55.1122 23.3341 53.8758 23.883 52.9653 25.0385L47.8633 32.1508C47.2732 32.9003 46.6133 33.5149 45.9744 34.1099C45.4429 34.6049 44.8943 35.1177 44.4031 35.6893L43.8819 36.2986C43.8185 36.3716 43.7301 36.4164 43.634 36.4228C43.5378 36.4291 43.4467 36.4172 43.3633 36.3868C43.1814 36.3206 42.8884 36.1129 42.9679 35.4652C42.9852 35.3855 43.8783 31.6331 41.5097 30.6334L41.4061 30.5941C40.1259 30.1282 39.1063 30.9285 37.9746 32.2743C37.8044 32.4765 37.4562 32.4955 37.2807 32.4316C36.9337 32.288 36.7803 31.9805 36.8609 31.6229C37.2646 29.8174 36.52 28.1289 35.0904 27.6087L34.9804 27.572C33.7362 27.1729 32.2349 27.6841 31.3346 28.8193C31.3013 28.8602 31.2625 28.893 31.2167 28.916C31.0379 29.0865 30.7309 29.3238 30.3971 29.2023C30.0395 29.0722 29.9545 28.637 29.9223 28.3205L29.882 27.9278C29.8432 27.5391 29.7932 27.0904 29.7363 26.6086C29.5574 25.0338 29.3341 23.0733 29.3698 21.7709L29.9186 12.5156C29.9567 11.1639 29.3346 10.0118 28.3715 9.66136C28.0998 9.5625 27.8139 9.53164 27.5212 9.56859C26.1596 9.74367 24.9901 11.2867 24.8574 13.0825L23.8469 22.4401C23.7768 23.3872 23.7988 24.7105 23.8206 25.9897C23.8369 26.9392 23.8522 27.8359 23.8297 28.5602L23.7417 31.5447C23.7102 32.5499 23.3892 33.2706 22.786 33.6865C22.4534 33.9205 21.334 34.7247 20.1235 35.8531C19.9906 35.9773 19.856 36.0953 19.7242 36.212C18.8306 37.0035 18.0601 37.6873 17.9859 39.9572C17.9468 41.0233 17.9962 42.1071 18.1499 43.699C18.3104 45.3703 18.8044 46.4188 19.3286 47.5285C20.0753 49.11 21.541 51.4606 20.554 54.1716C20.5461 54.1932 18.1661 60.7303 16.9526 64.0636Z" fill="white"/>
</mask>
<g mask="url(#mask1_619_461)">
<path d="M0.603516 69.1793H69.4249V0.384277H0.603516V69.1793Z" fill="#0043FF"/>
</g>
</svg>
