<svg width="81" height="81" viewBox="0 0 81 81" fill="none" xmlns="http://www.w3.org/2000/svg">
<rect x="0.491211" y="0.0980225" width="80" height="79.9946" rx="39.9973" fill="#FF0066"/>
<path d="M25.7434 26.1677C28.3464 26.1298 30.4294 24.0081 30.4041 21.4202C30.3788 18.8323 28.2548 16.7512 25.6516 16.7636C23.0484 16.776 20.9446 18.8773 20.9443 21.4654C20.9486 22.7231 21.4579 23.9271 22.3589 24.81C23.26 25.6929 24.4784 26.1816 25.7434 26.1677Z" fill="white"/>
<path d="M15.7936 51.3415C15.5211 52.4992 15.3787 53.6834 15.3689 54.8723C15.3689 59.0118 17.627 61.7605 22.4261 61.7605C26.4056 61.7605 29.6346 59.411 31.9552 55.6151L30.5365 61.2762H38.4363L42.9556 43.2785C44.0846 38.7169 46.2702 36.3511 49.5881 36.3511C52.1983 36.3511 53.8211 37.9643 53.8211 40.6312C53.834 41.4862 53.7152 42.3382 53.4689 43.1574L51.1417 51.4331C50.8088 52.5728 50.6425 53.7542 50.648 54.941C50.648 58.8678 52.9751 61.7474 57.8434 61.7474C62.0072 61.7474 65.3251 59.0838 67.1585 52.6995L64.0546 51.5051C62.5009 55.7853 61.1613 56.5575 60.1047 56.5575C59.0481 56.5575 58.4787 55.8573 58.4787 54.4534C58.5091 53.7168 58.6274 52.9863 58.8308 52.2774L61.0922 44.2111C61.5998 42.5529 61.8615 40.8299 61.869 39.0965C61.869 33.0624 58.1989 29.9144 53.752 29.9144C49.5881 29.9144 45.3552 33.6481 43.2387 37.5782L44.789 30.5231H32.7254L31.0302 36.7405H36.6786L33.2027 50.5627C30.4707 56.5968 25.4543 56.695 24.8256 56.5543C23.7921 56.3219 23.1338 55.9325 23.1338 54.5909C23.1639 53.5046 23.3297 52.4263 23.6275 51.3807L28.9203 30.5067H15.5171L13.8252 36.7241H19.3978L15.7936 51.3415Z" fill="white"/>
</svg>
