<svg width="24" height="25" viewBox="0 0 24 25" fill="none" xmlns="http://www.w3.org/2000/svg">
<path d="M12 2.47754C14.717 2.47754 15.056 2.48754 16.122 2.53754C17.187 2.58754 17.912 2.75454 18.55 3.00254C19.21 3.25654 19.766 3.60054 20.322 4.15554C20.8305 4.65544 21.224 5.26013 21.475 5.92754C21.722 6.56454 21.89 7.29054 21.94 8.35554C21.987 9.42154 22 9.76054 22 12.4775C22 15.1945 21.99 15.5335 21.94 16.5995C21.89 17.6645 21.722 18.3895 21.475 19.0275C21.2247 19.6953 20.8311 20.3002 20.322 20.7995C19.822 21.3079 19.2173 21.7013 18.55 21.9525C17.913 22.1995 17.187 22.3675 16.122 22.4175C15.056 22.4645 14.717 22.4775 12 22.4775C9.283 22.4775 8.944 22.4675 7.878 22.4175C6.813 22.3675 6.088 22.1995 5.45 21.9525C4.78233 21.702 4.17753 21.3085 3.678 20.7995C3.16941 20.2997 2.77593 19.695 2.525 19.0275C2.277 18.3905 2.11 17.6645 2.06 16.5995C2.013 15.5335 2 15.1945 2 12.4775C2 9.76054 2.01 9.42154 2.06 8.35554C2.11 7.28954 2.277 6.56554 2.525 5.92754C2.77524 5.25972 3.1688 4.65486 3.678 4.15554C4.17767 3.64677 4.78243 3.25327 5.45 3.00254C6.088 2.75454 6.812 2.58754 7.878 2.53754C8.944 2.49054 9.283 2.47754 12 2.47754ZM12 7.47754C10.6739 7.47754 9.40215 8.00432 8.46447 8.94201C7.52678 9.87969 7 11.1515 7 12.4775C7 13.8036 7.52678 15.0754 8.46447 16.0131C9.40215 16.9508 10.6739 17.4775 12 17.4775C13.3261 17.4775 14.5979 16.9508 15.5355 16.0131C16.4732 15.0754 17 13.8036 17 12.4775C17 11.1515 16.4732 9.87969 15.5355 8.94201C14.5979 8.00432 13.3261 7.47754 12 7.47754ZM18.5 7.22754C18.5 6.89602 18.3683 6.57808 18.1339 6.34366C17.8995 6.10924 17.5815 5.97754 17.25 5.97754C16.9185 5.97754 16.6005 6.10924 16.3661 6.34366C16.1317 6.57808 16 6.89602 16 7.22754C16 7.55906 16.1317 7.877 16.3661 8.11142C16.6005 8.34584 16.9185 8.47754 17.25 8.47754C17.5815 8.47754 17.8995 8.34584 18.1339 8.11142C18.3683 7.877 18.5 7.55906 18.5 7.22754ZM12 9.47754C12.7956 9.47754 13.5587 9.79361 14.1213 10.3562C14.6839 10.9188 15 11.6819 15 12.4775C15 13.2732 14.6839 14.0363 14.1213 14.5989C13.5587 15.1615 12.7956 15.4775 12 15.4775C11.2044 15.4775 10.4413 15.1615 9.87868 14.5989C9.31607 14.0363 9 13.2732 9 12.4775C9 11.6819 9.31607 10.9188 9.87868 10.3562C10.4413 9.79361 11.2044 9.47754 12 9.47754Z" fill="#050038"/>
</svg>
