<svg width="40" height="40" viewBox="0 0 40 40" fill="none" xmlns="http://www.w3.org/2000/svg">
<path d="M32.5 15C33.163 15 33.7989 14.7366 34.2678 14.2678C34.7366 13.7989 35 13.163 35 12.5V7.5C35 6.83696 34.7366 6.20107 34.2678 5.73223C33.7989 5.26339 33.163 5 32.5 5H27.5C26.837 5 26.2011 5.26339 25.7322 5.73223C25.2634 6.20107 25 6.83696 25 7.5V8.75H15V7.5C15 6.83696 14.7366 6.20107 14.2678 5.73223C13.7989 5.26339 13.163 5 12.5 5H7.5C6.83696 5 6.20107 5.26339 5.73223 5.73223C5.26339 6.20107 5 6.83696 5 7.5V12.5C5 13.163 5.26339 13.7989 5.73223 14.2678C6.20107 14.7366 6.83696 15 7.5 15H8.75V25H7.5C6.83696 25 6.20107 25.2634 5.73223 25.7322C5.26339 26.2011 5 26.837 5 27.5V32.5C5 33.163 5.26339 33.7989 5.73223 34.2678C6.20107 34.7366 6.83696 35 7.5 35H12.5C13.163 35 13.7989 34.7366 14.2678 34.2678C14.7366 33.7989 15 33.163 15 32.5V31.25H25V32.5C25 33.163 25.2634 33.7989 25.7322 34.2678C26.2011 34.7366 26.837 35 27.5 35H32.5C33.163 35 33.7989 34.7366 34.2678 34.2678C34.7366 33.7989 35 33.163 35 32.5V27.5C35 26.837 34.7366 26.2011 34.2678 25.7322C33.7989 25.2634 33.163 25 32.5 25H31.25V15H32.5ZM28.75 25H27.5C26.837 25 26.2011 25.2634 25.7322 25.7322C25.2634 26.2011 25 26.837 25 27.5V28.75H15V27.5C15 26.837 14.7366 26.2011 14.2678 25.7322C13.7989 25.2634 13.163 25 12.5 25H11.25V15H12.5C13.163 15 13.7989 14.7366 14.2678 14.2678C14.7366 13.7989 15 13.163 15 12.5V11.25H25V12.5C25 13.163 25.2634 13.7989 25.7322 14.2678C26.2011 14.7366 26.837 15 27.5 15H28.75V25Z" fill="white"/>
</svg>
