<svg width="25" height="24" viewBox="0 0 25 24" fill="none" xmlns="http://www.w3.org/2000/svg">
<path d="M7.44043 5.00002C7.44017 5.53046 7.2292 6.03906 6.85394 6.41394C6.47868 6.78883 5.96986 6.99929 5.43943 6.99902C4.909 6.99876 4.40039 6.78779 4.02551 6.41253C3.65062 6.03727 3.44016 5.52846 3.44043 4.99802C3.4407 4.46759 3.65166 3.95899 4.02692 3.5841C4.40218 3.20922 4.911 2.99876 5.44143 2.99902C5.97186 2.99929 6.48047 3.21026 6.85535 3.58552C7.23024 3.96078 7.4407 4.46959 7.44043 5.00002ZM7.50043 8.48002H3.50043V21H7.50043V8.48002ZM13.8204 8.48002H9.84043V21H13.7804V14.43C13.7804 10.77 18.5504 10.43 18.5504 14.43V21H22.5004V13.07C22.5004 6.90002 15.4404 7.13002 13.7804 10.16L13.8204 8.48002Z" fill="white"/>
</svg>
