<svg width="21" height="20" viewBox="0 0 21 20" fill="none" xmlns="http://www.w3.org/2000/svg">
<path d="M6.50911 4.16665C6.50889 4.60867 6.33309 5.03251 6.02037 5.34491C5.70765 5.65732 5.28364 5.8327 4.84161 5.83248C4.39959 5.83226 3.97575 5.65645 3.66335 5.34373C3.35094 5.03102 3.17556 4.60701 3.17578 4.16498C3.176 3.72295 3.35181 3.29912 3.66453 2.98671C3.97724 2.67431 4.40125 2.49892 4.84328 2.49915C5.28531 2.49937 5.70914 2.67517 6.02155 2.98789C6.33395 3.30061 6.50934 3.72462 6.50911 4.16665V4.16665ZM6.55911 7.06665H3.22578V17.5H6.55911V7.06665ZM11.8258 7.06665H8.50911V17.5H11.7924V12.025C11.7924 8.97498 15.7674 8.69165 15.7674 12.025V17.5H19.0591V10.8916C19.0591 5.74998 13.1758 5.94165 11.7924 8.46665L11.8258 7.06665V7.06665Z" fill="#050038"/>
</svg>
