<svg width="150" height="68" viewBox="0 0 150 68" fill="none" xmlns="http://www.w3.org/2000/svg">
<rect y="38.564" width="146.372" height="30" rx="6" transform="rotate(-15 0 38.564)" fill="#F24E1E"/>
<path d="M21.947 53.4593L20.6488 53.8071L18.029 44.03L19.3272 43.6822L24.8975 51.0019L26.0617 41.8777L27.3869 41.5226L30.0067 51.2997L28.7085 51.6476L27.6722 47.78C27.549 47.3202 27.4439 46.928 27.3569 46.6035C27.27 46.2789 27.1996 45.9983 27.1458 45.7615C27.092 45.5246 27.0455 45.3149 27.0062 45.1321C26.9645 44.9404 26.9297 44.7565 26.9018 44.5804L25.9363 52.3904L24.6922 52.7237L19.9718 46.4662C20.0706 46.691 20.1898 47.0456 20.3293 47.53C20.4777 48.012 20.6438 48.5955 20.8274 49.2807L21.947 53.4593Z" fill="white"/>
<path d="M40.6 43.2145C40.8657 44.2062 40.8984 45.1395 40.698 46.0145C40.5042 46.8781 40.1092 47.6217 39.513 48.2452C38.9233 48.8574 38.1642 49.2878 37.2356 49.5366C36.3251 49.7806 35.4569 49.7862 34.6312 49.5533C33.812 49.309 33.1027 48.8613 32.5031 48.2103C31.9035 47.5593 31.4696 46.7335 31.2015 45.7328C30.9358 44.7411 30.8998 43.8135 31.0936 42.9499C31.2963 42.0839 31.6913 41.3403 32.2786 40.7192C32.8658 40.098 33.6192 39.6642 34.5388 39.4179C35.4674 39.169 36.3412 39.1668 37.1604 39.4111C37.9795 39.6554 38.6889 40.1031 39.2885 40.7541C39.8971 41.4027 40.3342 42.2228 40.6 43.2145ZM39.2071 43.5877C39.0042 42.8304 38.6869 42.2052 38.2552 41.7121C37.8326 41.2166 37.3323 40.8821 36.7543 40.7084C36.1739 40.5257 35.5502 40.5238 34.883 40.7025C34.2249 40.8789 33.6902 41.1912 33.2789 41.6396C32.8652 42.079 32.5947 42.6201 32.4674 43.263C32.3491 43.9034 32.3915 44.6023 32.5944 45.3596C32.7973 46.1169 33.1101 46.7432 33.5327 47.2387C33.9644 47.7318 34.4704 48.0697 35.0508 48.2524C35.6312 48.435 36.2504 48.4382 36.9085 48.2619C37.5757 48.0831 38.1149 47.7695 38.5262 47.3211C38.9351 46.8637 39.1986 46.3148 39.3169 45.6744C39.4442 45.0315 39.4076 44.336 39.2071 43.5877Z" fill="white"/>
<path d="M41.9369 40.4503C41.7871 39.8913 41.7952 39.3625 41.9611 38.8639C42.1271 38.3653 42.4311 37.9312 42.8731 37.5615C43.3242 37.1894 43.8833 36.914 44.5504 36.7352C45.1725 36.5686 45.7436 36.5363 46.2638 36.6385C46.7905 36.7293 47.239 36.9424 47.6092 37.2781C47.9883 37.6113 48.272 38.0571 48.4603 38.6154L47.1215 38.9741C46.955 38.4969 46.6732 38.1666 46.2762 37.9831C45.8792 37.7996 45.4057 37.7815 44.8558 37.9289C44.2427 38.0931 43.7901 38.369 43.4977 38.7566C43.203 39.1351 43.1208 39.5678 43.2513 40.0546C43.3576 40.4513 43.556 40.7411 43.8466 40.9241C44.1348 41.0981 44.5233 41.1776 45.0121 41.1626L46.7227 41.1101C47.5734 41.0754 48.2563 41.2258 48.7713 41.5612C49.293 41.8853 49.6456 42.3899 49.8292 43.075C49.9862 43.661 49.9784 44.209 49.8059 44.7191C49.6424 45.2267 49.3306 45.6678 48.8705 46.0423C48.4194 46.4144 47.8468 46.6934 47.1526 46.8794C46.4945 47.0557 45.884 47.1034 45.3212 47.0223C44.7649 46.9298 44.2882 46.7193 43.891 46.3909C43.5004 46.0511 43.2134 45.6111 43.03 45.0708L44.3823 44.7084C44.5169 45.1748 44.8065 45.4982 45.251 45.6787C45.6931 45.8501 46.2207 45.8536 46.8337 45.6894C47.4828 45.5155 47.9581 45.2335 48.2594 44.8436C48.5698 44.4512 48.6609 44.0161 48.5329 43.5383C48.429 43.1507 48.2363 42.8641 47.9547 42.6787C47.6731 42.4932 47.2834 42.4092 46.7856 42.4267L45.0786 42.4927C44.2369 42.525 43.5483 42.3713 43.0129 42.0317C42.484 41.6806 42.1253 41.1535 41.9369 40.4503Z" fill="white"/>
<path d="M53.7721 35.105L56.2288 44.2735L54.9035 44.6286L52.4468 35.4601L53.7721 35.105ZM49.6619 36.8585L49.3358 35.6414L56.5435 33.7101L56.8696 34.9272L49.6619 36.8585Z" fill="white"/>
<path d="M64.5215 31.5724L67.1413 41.3495L65.816 41.7046L63.1963 31.9275L64.5215 31.5724ZM68.6811 37.1975L65.9089 37.9403L65.5901 36.7503L68.0783 36.0836C68.7364 35.9072 69.1941 35.5962 69.4515 35.1504C69.7065 34.6955 69.7531 34.1661 69.5912 33.5621C69.427 32.949 69.1243 32.5228 68.6834 32.2835C68.24 32.0351 67.7072 31.9943 67.0852 32.161L64.2454 32.9219L63.9265 31.7319L66.9962 30.9093C67.6363 30.7378 68.2258 30.72 68.7646 30.8558C69.3035 30.9916 69.7664 31.2589 70.1535 31.6577C70.5405 32.0564 70.8186 32.5713 70.9877 33.2024C71.1496 33.8064 71.1638 34.3824 71.0304 34.9302C70.8969 35.4781 70.6321 35.9501 70.2357 36.3461C69.8394 36.7422 69.3212 37.026 68.6811 37.1975Z" fill="white"/>
<path d="M82.5845 31.9647C82.8502 32.9564 82.8829 33.8898 82.6826 34.7648C82.4888 35.6283 82.0938 36.3719 81.4976 36.9955C80.9079 37.6076 80.1488 38.0381 79.2202 38.2869C78.3096 38.5309 77.4415 38.5364 76.6158 38.3036C75.7966 38.0592 75.0872 37.6116 74.4877 36.9606C73.8881 36.3096 73.4542 35.4837 73.1861 34.4831C72.9204 33.4914 72.8844 32.5637 73.0781 31.7002C73.2809 30.8342 73.6759 30.0906 74.2632 29.4694C74.8504 28.8483 75.6038 28.4145 76.5234 28.1681C77.4519 27.9193 78.3258 27.9171 79.1449 28.1614C79.9641 28.4057 80.6735 28.8533 81.273 29.5043C81.8816 30.1529 82.3188 30.9731 82.5845 31.9647ZM81.1917 32.338C80.9887 31.5807 80.6715 30.9555 80.2398 30.4624C79.8172 29.9669 79.3168 29.6323 78.7389 29.4587C78.1585 29.276 77.5347 29.274 76.8676 29.4528C76.2095 29.6291 75.6748 29.9415 75.2635 30.3899C74.8498 30.8293 74.5793 31.3704 74.452 32.0133C74.3337 32.6537 74.376 33.3525 74.5789 34.1098C74.7819 34.8671 75.0946 35.4935 75.5173 35.989C75.9489 36.4821 76.455 36.82 77.0354 37.0026C77.6157 37.1853 78.235 37.1885 78.8931 37.0121C79.5602 36.8334 80.0995 36.5198 80.5108 36.0714C80.9196 35.614 81.1832 35.0651 81.3015 34.4246C81.4288 33.7818 81.3922 33.0862 81.1917 32.338Z" fill="white"/>
<path d="M85.1081 26.0563L87.7279 35.8334L86.4026 36.1885L83.7829 26.4114L85.1081 26.0563ZM89.2677 31.6813L86.4955 32.4242L86.1766 31.2341L88.6649 30.5674C89.323 30.3911 89.7807 30.08 90.0381 29.6342C90.2931 29.1794 90.3397 28.65 90.1778 28.0459C90.0135 27.4329 89.7109 27.0067 89.2699 26.7673C88.8266 26.519 88.2938 26.4781 87.6718 26.6448L84.832 27.4057L84.5131 26.2157L87.5828 25.3932C88.2229 25.2217 88.8124 25.2038 89.3512 25.3397C89.8901 25.4755 90.353 25.7428 90.7401 26.1415C91.1271 26.5403 91.4052 27.0552 91.5743 27.6862C91.7361 28.2903 91.7504 28.8662 91.6169 29.4141C91.4835 29.9619 91.2187 30.4339 90.8223 30.83C90.426 31.226 89.9078 31.5098 89.2677 31.6813Z" fill="white"/>
<path d="M94.667 30.2491L92.9785 23.9474L94.3037 23.5923L95.9705 29.8129C96.1807 30.5972 96.5499 31.1457 97.0781 31.4583C97.613 31.7594 98.268 31.8061 99.0433 31.5984C99.8096 31.3931 100.343 31.023 100.645 30.4882C100.946 29.9533 100.992 29.2982 100.785 28.5229L99.1179 22.3024L100.457 21.9436L102.145 28.2453C102.346 28.9936 102.365 29.6793 102.204 30.3023C102.051 30.9229 101.735 31.4569 101.256 31.9042C100.777 32.3515 100.154 32.6778 99.3876 32.8831C98.6213 33.0884 97.9155 33.1229 97.2702 32.9866C96.6316 32.8389 96.0865 32.5356 95.635 32.0768C95.1902 31.6066 94.8675 30.9974 94.667 30.2491Z" fill="white"/>
<path d="M104.797 20.7807L107.416 30.5578L106.091 30.9129L103.471 21.1358L104.797 20.7807ZM106.321 30.8513L105.991 29.6207L111.387 28.175L111.717 29.4056L106.321 30.8513Z" fill="white"/>
<path d="M114.638 28.6229L113.258 28.9925L114.209 18.2588L115.683 17.8639L121.886 26.6807L120.493 27.054L118.962 24.8554L114.851 25.9569L114.638 28.6229ZM115.342 20.2162L114.949 24.6987L118.262 23.811L115.666 20.1293C115.613 20.0373 115.555 19.9466 115.492 19.8571C115.427 19.7586 115.38 19.6745 115.352 19.6048C115.353 19.6817 115.355 19.7779 115.357 19.8933C115.356 19.9998 115.351 20.1074 115.342 20.2162Z" fill="white"/>
<path d="M125.322 25.76L123.997 26.1151L121.377 16.338L125.069 15.3488C126.115 15.0686 127.001 15.1114 127.727 15.4773C128.459 15.8317 128.949 16.4687 129.195 17.3883C129.377 18.0644 129.363 18.6816 129.155 19.2398C128.956 19.7955 128.581 20.2535 128.031 20.6137L131.124 24.2055L129.65 24.6005L126.788 21.2221L124.286 21.8924L125.322 25.76ZM123.021 17.1729L123.971 20.7159L126.351 20.0782C126.964 19.9139 127.395 19.6293 127.644 19.2244C127.902 18.8171 127.956 18.334 127.806 17.775C127.654 17.207 127.362 16.8214 126.931 16.6181C126.506 16.4034 125.992 16.377 125.388 16.5388L123.021 17.1729Z" fill="white"/>
</svg>
