<svg width="24" height="24" viewBox="0 0 24 24" fill="none" xmlns="http://www.w3.org/2000/svg">
<g opacity="0.3">
<path d="M11.9988 2.25C10.3055 2.24987 8.64133 2.69074 7.17019 3.52921C5.69904 4.36768 4.47163 5.57483 3.60879 7.03182C2.74595 8.4888 2.27744 10.1454 2.24939 11.8385C2.22133 13.5315 2.6347 15.2027 3.44879 16.6875L2.65191 19.4906C2.57697 19.7486 2.57221 20.0218 2.63813 20.2822C2.70405 20.5426 2.83826 20.7807 3.02691 20.9719C3.21555 21.1614 3.45198 21.2964 3.71113 21.3624C3.97027 21.4284 4.24245 21.4231 4.49879 21.3469L7.31129 20.55C8.61468 21.2644 10.0641 21.6713 11.5489 21.7397C13.0336 21.8081 14.5144 21.5361 15.8779 20.9445C17.2414 20.353 18.4517 19.4575 19.4161 18.3266C20.3806 17.1956 21.0737 15.8592 21.4425 14.4193C21.8113 12.9795 21.8461 11.4744 21.5441 10.0191C21.2421 8.56374 20.6114 7.19672 19.7002 6.02249C18.7889 4.84826 17.6213 3.8979 16.2865 3.24406C14.9517 2.59022 13.4851 2.25021 11.9988 2.25ZM7.49879 13.125C7.27628 13.125 7.05878 13.059 6.87377 12.9354C6.68877 12.8118 6.54457 12.6361 6.45942 12.4305C6.37427 12.225 6.352 11.9988 6.3954 11.7805C6.43881 11.5623 6.54596 11.3618 6.70329 11.2045C6.86063 11.0472 7.06108 10.94 7.27931 10.8966C7.49754 10.8532 7.72374 10.8755 7.92931 10.9606C8.13487 11.0458 8.31057 11.19 8.43419 11.375C8.55781 11.56 8.62379 11.7775 8.62379 12C8.62379 12.2984 8.50526 12.5845 8.29428 12.7955C8.0833 13.0065 7.79716 13.125 7.49879 13.125ZM11.9988 13.125C11.7763 13.125 11.5588 13.059 11.3738 12.9354C11.1888 12.8118 11.0446 12.6361 10.9594 12.4305C10.8743 12.225 10.852 11.9988 10.8954 11.7805C10.9388 11.5623 11.046 11.3618 11.2033 11.2045C11.3606 11.0472 11.5611 10.94 11.7793 10.8966C11.9975 10.8532 12.2237 10.8755 12.4293 10.9606C12.6349 11.0458 12.8106 11.19 12.9342 11.375C13.0578 11.56 13.1238 11.7775 13.1238 12C13.1238 12.2984 13.0053 12.5845 12.7943 12.7955C12.5833 13.0065 12.2972 13.125 11.9988 13.125ZM16.4988 13.125C16.2763 13.125 16.0588 13.059 15.8738 12.9354C15.6888 12.8118 15.5446 12.6361 15.4594 12.4305C15.3743 12.225 15.352 11.9988 15.3954 11.7805C15.4388 11.5623 15.546 11.3618 15.7033 11.2045C15.8606 11.0472 16.0611 10.94 16.2793 10.8966C16.4975 10.8532 16.7237 10.8755 16.9293 10.9606C17.1349 11.0458 17.3106 11.19 17.4342 11.375C17.5578 11.56 17.6238 11.7775 17.6238 12C17.6238 12.2984 17.5053 12.5845 17.2943 12.7955C17.0833 13.0065 16.7972 13.125 16.4988 13.125Z" fill="#050038"/>
</g>
</svg>
