<svg width="24" height="24" viewBox="0 0 24 24" fill="none" xmlns="http://www.w3.org/2000/svg">
<g opacity="0.3">
<path d="M21.7425 19.875C20.3431 17.4643 18.1031 15.6549 15.4519 14.7938C16.7227 14.0381 17.7102 12.8862 18.2628 11.5148C18.8153 10.1435 18.9024 8.62868 18.5105 7.20309C18.1187 5.7775 17.2696 4.51998 16.0938 3.62373C14.918 2.72748 13.4804 2.24207 12.0019 2.24207C10.5235 2.24207 9.08588 2.72748 7.91004 3.62373C6.73421 4.51998 5.88515 5.7775 5.49331 7.20309C5.10146 8.62868 5.18851 10.1435 5.74108 11.5148C6.29364 12.8862 7.28116 14.0381 8.55192 14.7938C5.90076 15.6549 3.66073 17.4643 2.2613 19.875C2.19259 19.9881 2.15625 20.1178 2.15625 20.25C2.15625 20.3823 2.19259 20.512 2.2613 20.625C2.3254 20.74 2.41933 20.8355 2.53318 20.9015C2.64703 20.9675 2.77658 21.0015 2.90817 21H21.0957C21.2273 21.0015 21.3568 20.9675 21.4707 20.9015C21.5845 20.8355 21.6784 20.74 21.7425 20.625C21.8113 20.512 21.8476 20.3823 21.8476 20.25C21.8476 20.1178 21.8113 19.9881 21.7425 19.875Z" fill="#050038"/>
</g>
</svg>
