<svg width="40" height="40" viewBox="0 0 40 40" fill="none" xmlns="http://www.w3.org/2000/svg">
<path d="M20 18.125C24.1421 18.125 27.5 14.7671 27.5 10.625C27.5 6.48286 24.1421 3.125 20 3.125C15.8579 3.125 12.5 6.48286 12.5 10.625C12.5 14.7671 15.8579 18.125 20 18.125Z" fill="white"/>
<path d="M29.375 34.375C33.5171 34.375 36.875 31.0171 36.875 26.875C36.875 22.7329 33.5171 19.375 29.375 19.375C25.2329 19.375 21.875 22.7329 21.875 26.875C21.875 31.0171 25.2329 34.375 29.375 34.375Z" fill="white"/>
<path d="M10.625 34.375C14.7671 34.375 18.125 31.0171 18.125 26.875C18.125 22.7329 14.7671 19.375 10.625 19.375C6.48286 19.375 3.125 22.7329 3.125 26.875C3.125 31.0171 6.48286 34.375 10.625 34.375Z" fill="white"/>
</svg>
