<svg width="135" height="38" viewBox="0 0 135 38" fill="none" xmlns="http://www.w3.org/2000/svg">
<path d="M16.7628 37.533H4.70508L16.7628 19.2993H28.8206L16.7628 37.533Z" fill="#050038"/>
<path d="M12.3518 0.477539H24.7035L12.3518 19.2992H0L12.3518 0.477539Z" fill="#050038"/>
<path d="M53.419 16.3396C53.419 17.4576 53.1494 18.506 52.6102 19.4846C52.0911 20.4628 51.2625 21.2515 50.1244 21.8507C49.0061 22.4496 47.5886 22.7492 45.8714 22.7492H42.3669V30.776H38.1738V9.87012H45.8714C47.4887 9.87012 48.8664 10.1496 50.0045 10.7088C51.1429 11.2678 51.9912 12.0366 52.5505 13.015C53.1296 13.9934 53.419 15.1016 53.419 16.3396ZM45.6914 19.3646C46.8496 19.3646 47.7082 19.1052 48.2675 18.5858C48.8265 18.0469 49.106 17.2981 49.106 16.3396C49.106 14.3029 47.9679 13.2846 45.6914 13.2846H42.3669V19.3646H45.6914Z" fill="#050038"/>
<path d="M59.3913 16.7593C59.9305 15.8807 60.6292 15.1918 61.4878 14.6926C62.3665 14.1934 63.3648 13.9438 64.4831 13.9438V18.3465H63.3747C62.057 18.3465 61.0587 18.656 60.3797 19.2753C59.7209 19.8943 59.3913 20.9724 59.3913 22.5099V30.7764H55.1982V14.1835H59.3913V16.7593Z" fill="#050038"/>
<path d="M73.4779 31.0457C71.8804 31.0457 70.4427 30.6963 69.1649 29.9976C67.8871 29.2787 66.8786 28.2702 66.1399 26.9722C65.4211 25.6743 65.0615 24.177 65.0615 22.4796C65.0615 20.7826 65.431 19.2849 66.1699 17.987C66.9287 16.689 67.957 15.6907 69.2549 14.9918C70.5528 14.273 72.0004 13.9136 73.5979 13.9136C75.1951 13.9136 76.6427 14.273 77.9406 14.9918C79.2385 15.6907 80.2569 16.689 80.9959 17.987C81.7546 19.2849 82.134 20.7826 82.134 22.4796C82.134 24.177 81.7444 25.6743 80.9659 26.9722C80.2068 28.2702 79.1686 29.2787 77.8509 29.9976C76.553 30.6963 75.0952 31.0457 73.4779 31.0457ZM73.4779 27.3915C74.2366 27.3915 74.9456 27.2119 75.6045 26.8526C76.2834 26.4733 76.8226 25.9139 77.2217 25.1753C77.6212 24.4364 77.8209 23.5379 77.8209 22.4796C77.8209 20.9022 77.4017 19.6943 76.5629 18.8554C75.7442 17.9969 74.736 17.5677 73.5379 17.5677C72.3399 17.5677 71.3313 17.9969 70.513 18.8554C69.714 19.6943 69.3149 20.9022 69.3149 22.4796C69.3149 24.057 69.7041 25.2752 70.483 26.1338C71.2816 26.9723 72.2799 27.3915 73.4779 27.3915Z" fill="#050038"/>
<path d="M88.2048 27.4516H92.708V30.7761H84.0117V7.29443H88.2048V27.4516Z" fill="#050038"/>
<path d="M95.9605 12.2064C95.2219 12.2064 94.6026 11.9768 94.1036 11.5176C93.6244 11.0383 93.3848 10.4493 93.3848 9.75044C93.3848 9.05158 93.6244 8.47252 94.1036 8.01327C94.6026 7.53405 95.2219 7.29443 95.9605 7.29443C96.6995 7.29443 97.3082 7.53405 97.7874 8.01327C98.2868 8.47252 98.5363 9.05158 98.5363 9.75044C98.5363 10.4493 98.2868 11.0383 97.7874 11.5176C97.3082 11.9768 96.6995 12.2064 95.9605 12.2064ZM98.027 14.1832V30.7761H93.834V14.1832H98.027Z" fill="#050038"/>
<path d="M110.167 13.9438C112.143 13.9438 113.741 14.5728 114.959 15.8308C116.177 17.0688 116.786 18.806 116.786 21.0423V30.7764H112.593V21.6115C112.593 20.2934 112.263 19.2852 111.605 18.5861C110.945 17.8673 110.047 17.5081 108.909 17.5081C107.751 17.5081 106.832 17.8673 106.153 18.5861C105.494 19.2852 105.165 20.2934 105.165 21.6115V30.7764H100.972V14.1835H105.165V16.2501C105.724 15.5313 106.433 14.9722 107.292 14.5728C108.17 14.1535 109.128 13.9438 110.167 13.9438Z" fill="#050038"/>
<path d="M134.999 22.1204C134.999 22.7192 134.959 23.2584 134.88 23.7377H122.749C122.849 24.9357 123.269 25.8741 124.007 26.553C124.746 27.232 125.654 27.5714 126.733 27.5714C128.29 27.5714 129.399 26.9024 130.057 25.5646H134.58C134.101 27.1621 133.182 28.4798 131.824 29.5183C130.467 30.5364 128.799 31.0457 126.823 31.0457C125.225 31.0457 123.788 30.6963 122.51 29.9976C121.252 29.2787 120.263 28.2702 119.545 26.9722C118.846 25.6743 118.496 24.177 118.496 22.4796C118.496 20.7625 118.846 19.2549 119.545 17.957C120.243 16.6591 121.222 15.6607 122.48 14.9619C123.738 14.263 125.185 13.9136 126.823 13.9136C128.4 13.9136 129.808 14.253 131.046 14.9319C132.304 15.6108 133.272 16.5792 133.951 17.8373C134.65 19.0753 134.999 20.5027 134.999 22.1204ZM130.656 20.9223C130.637 19.8439 130.247 18.9853 129.488 18.3462C128.73 17.6874 127.801 17.3581 126.703 17.3581C125.665 17.3581 124.786 17.6775 124.067 18.3166C123.368 18.9355 122.939 19.804 122.779 20.9223H130.656Z" fill="#050038"/>
</svg>
