<svg width="24" height="25" viewBox="0 0 24 25" fill="none" xmlns="http://www.w3.org/2000/svg">
<g opacity="0.6">
<path d="M18.031 16.7953L22.314 21.0773L20.899 22.4923L16.617 18.2093C15.0237 19.4866 13.042 20.1812 11 20.1783C6.032 20.1783 2 16.1463 2 11.1783C2 6.21034 6.032 2.17834 11 2.17834C15.968 2.17834 20 6.21034 20 11.1783C20.0029 13.2203 19.3082 15.2021 18.031 16.7953ZM16.025 16.0533C17.2941 14.7482 18.0029 12.9988 18 11.1783C18 7.31034 14.867 4.17834 11 4.17834C7.132 4.17834 4 7.31034 4 11.1783C4 15.0453 7.132 18.1783 11 18.1783C12.8204 18.1812 14.5699 17.4725 15.875 16.2033L16.025 16.0533Z" fill="#050038"/>
</g>
</svg>
