<svg width="101" height="101" viewBox="0 0 101 101" fill="none" xmlns="http://www.w3.org/2000/svg">
<path fill-rule="evenodd" clip-rule="evenodd" d="M0.491211 50.1775C0.491211 22.5659 22.8774 0.181763 50.4909 0.181763C78.1056 0.181763 100.491 22.5659 100.491 50.1775C100.491 77.7921 78.1056 100.175 50.4909 100.175C22.8774 100.175 0.491211 77.7921 0.491211 50.1775ZM78.8685 43.8365C62.9944 34.4099 36.8103 33.5432 21.6565 38.1421C19.2226 38.8806 16.6492 37.507 15.9124 35.0738C15.1749 32.6388 16.5469 30.0674 18.982 29.3276C36.3781 24.0478 65.2955 25.0674 83.5701 35.9146C85.7595 37.2142 86.4769 40.0408 85.1796 42.2259C83.8812 44.4145 81.052 45.136 78.8685 43.8365ZM73.0669 59.0629C74.8717 60.1725 77.2345 59.6057 78.3483 57.7987C79.458 55.9958 78.8899 53.6319 77.0851 52.5206C61.8849 43.1798 39.6497 40.5514 21.7638 45.9788C19.7367 46.5962 18.5917 48.7366 19.2033 50.7665C19.8202 52.7934 21.9649 53.9377 23.9949 53.3244C39.652 48.572 59.8331 50.9288 73.0669 59.0629ZM68.1021 72.2286C69.5482 73.113 71.4376 72.6584 72.3226 71.2072C73.2071 69.7607 72.7514 67.8702 71.3041 66.9864C58.3238 59.0551 42.2327 57.2099 23.4735 61.4978C21.8181 61.8747 20.7866 63.5212 21.1653 65.1729C21.5417 66.8241 23.1883 67.859 24.8401 67.4803C41.9822 63.5653 56.5379 65.1612 68.1021 72.2286Z" fill="#1ED760"/>
</svg>
