<svg width="24" height="24" viewBox="0 0 24 24" fill="none" xmlns="http://www.w3.org/2000/svg">
<g opacity="0.3">
<path d="M21 7.19061L16.8469 3.02811C16.5672 2.74135 16.1878 2.57346 15.7875 2.55936C15.5844 2.55468 15.3824 2.59132 15.1938 2.66707C15.0053 2.74281 14.8341 2.85607 14.6906 2.99998L12.2156 5.46561L3.44063 14.25C3.30084 14.3887 3.18993 14.5537 3.1143 14.7356C3.03867 14.9174 2.99983 15.1124 3 15.3094V19.5C3 19.8978 3.15804 20.2793 3.43934 20.5606C3.72064 20.8419 4.10218 21 4.5 21H8.69063C9.08798 20.9983 9.46864 20.84 9.75 20.5594L21 9.30936C21.2783 9.02696 21.4342 8.64643 21.4342 8.24998C21.4342 7.85353 21.2783 7.473 21 7.19061ZM18 10.1906L13.8094 5.99998L15.75 4.05936L19.9406 8.24998L18 10.1906Z" fill="#050038"/>
</g>
</svg>
