<svg width="200" height="73" viewBox="0 0 200 73" fill="none" xmlns="http://www.w3.org/2000/svg">
<g opacity="0.4" clip-path="url(#clip0_280_1207)">
<rect width="200" height="72" transform="translate(0 0.477295)" fill="white"/>
<path d="M81.98 26.1267H86.2918V49.3438H81.98V26.1267Z" fill="#050038"/>
<path d="M100.565 31.4335C102.798 31.4335 104.589 32.0858 105.938 33.3904C107.287 34.695 107.961 36.6298 107.961 39.1947V49.3438H103.815V39.7256C103.815 38.1775 103.45 37.0167 102.721 36.2428C101.991 35.4468 100.952 35.0488 99.6033 35.0488C98.0773 35.0488 96.8721 35.5131 95.9879 36.4418C95.1034 37.3484 94.6609 38.6642 94.6609 40.3887V49.3438H90.5151V31.6325H94.462V33.9211C95.1476 33.1029 96.01 32.4838 97.0493 32.0637C98.0886 31.6436 99.2605 31.4335 100.565 31.4335Z" fill="#050038"/>
<path d="M127.822 31.6325L120.226 49.3438H115.948L108.353 31.6325H112.664L118.17 44.7667L123.842 31.6325H127.822Z" fill="#050038"/>
<path d="M144.919 40.5876C144.919 40.8754 144.897 41.284 144.853 41.8149H130.955C131.199 43.1194 131.829 44.1587 132.846 44.9327C133.885 45.6847 135.168 46.0604 136.693 46.0604C138.639 46.0604 140.242 45.419 141.503 44.1366L143.725 46.6905C142.929 47.6414 141.923 48.36 140.707 48.8462C139.49 49.3329 138.12 49.576 136.594 49.576C134.648 49.576 132.935 49.189 131.453 48.4154C129.972 47.6414 128.822 46.5688 128.004 45.198C127.207 43.8051 126.81 42.2349 126.81 40.4883C126.81 38.7635 127.197 37.2157 127.971 35.8448C128.766 34.4518 129.861 33.3683 131.254 32.5944C132.647 31.8205 134.217 31.4335 135.964 31.4335C137.688 31.4335 139.225 31.8205 140.574 32.5944C141.945 33.3462 143.006 34.4186 143.758 35.8116C144.532 37.1825 144.919 38.7747 144.919 40.5876ZM135.964 34.7503C134.637 34.7503 133.509 35.1483 132.581 35.9443C131.674 36.7182 131.121 37.7576 130.922 39.0621H140.972C140.795 37.7797 140.253 36.7403 139.347 35.9443C138.44 35.1483 137.313 34.7503 135.964 34.7503Z" fill="#050038"/>
<path d="M151.19 34.2196C152.384 32.3622 154.485 31.7652 157.492 31.7652V35.082C157.138 35.0156 156.818 34.9824 156.53 34.9824C154.916 34.9824 153.656 35.7563 152.749 36.7072C151.843 37.6358 151.389 38.9845 151.389 40.7536V49.3438H147.243V31.6325H151.19V34.2196Z" fill="#050038"/>
<path d="M171.479 48.3821C170.992 48.7799 170.396 49.0785 169.688 49.2775C169.003 49.4768 168.273 49.5761 167.499 49.5761C165.553 49.5761 164.05 49.0677 162.988 48.0505C161.927 47.0334 161.396 45.5516 161.396 43.6061V35.082H158.478V31.7652H161.396V27.7188H165.542V31.7652H170.285V35.082H165.542V43.5065C165.542 44.3689 165.752 45.032 166.172 45.4966C166.592 45.9386 167.2 46.1601 167.996 46.1601C168.925 46.1601 169.699 45.9165 170.318 45.4303L171.479 48.3821Z" fill="#050038"/>
<path fill-rule="evenodd" clip-rule="evenodd" d="M71.1372 37.8038C71.1372 49.5506 61.6149 59.0729 49.8681 59.0729C38.1216 59.0729 28.5991 49.5506 28.5991 37.8038C28.5991 26.0573 38.1216 16.5348 49.8681 16.5348C61.6149 16.5348 71.1372 26.0573 71.1372 37.8038ZM64.4528 37.8038C64.4528 45.8585 57.9233 52.3881 49.8686 52.3881C49.3101 52.3881 48.7589 52.3569 48.2167 52.296C55.5466 51.5257 61.2592 45.326 61.2592 37.7917C61.2592 30.2956 55.6033 24.1202 48.3263 23.3C48.8331 23.2467 49.3477 23.2194 49.8686 23.2194C57.9233 23.2194 64.4528 29.7491 64.4528 37.8038ZM45.1585 48.0768C49.9653 47.2277 53.6215 42.9514 53.6215 37.8038C53.6215 32.6562 49.9653 28.3798 45.1585 27.531C45.7402 27.4303 46.3384 27.3778 46.9488 27.3778C52.7069 27.3778 57.3749 32.0457 57.3749 37.8038C57.3749 43.5619 52.7069 48.2298 46.9488 48.2298C46.3384 48.2298 45.7402 48.1773 45.1585 48.0768Z" fill="#050038"/>
</g>
<defs>
<clipPath id="clip0_280_1207">
<rect width="200" height="72" fill="white" transform="translate(0 0.477295)"/>
</clipPath>
</defs>
</svg>
